demo_forces.mot
version=1
nRows=42
nColumns=19
inDegrees=yes
endheader

time	ground_force_vx	ground_force_vy	ground_force_vz	ground_force_px	ground_force_py	ground_force_pz	1_ground_force_vx	1_ground_force_vy	1_ground_force_vz	1_ground_force_px	1_ground_force_py	1_ground_force_pz	ground_torque_x	ground_torque_y	ground_torque_z	1_ground_torque_x	1_ground_torque_y	1_ground_torque_z
1.4555	-1.02	23.74	-2.8299999999999987	-0.26525371825783667	7.041632522729438e-18	-0.11499858616592991	-68.47	581.4	39.53000000000004	0.08987741348742107	1.804691606859621e-17	-0.29472850590327604	0.0	-0.08281288083766124	-5.070826472300466e-18	0.0	0.1969968060682429	1.2062575399686127e-17
1.456	-0.66	25.15	-2.8199999999999985	-0.263222749810277	6.988749238484572e-18	-0.11413493659314397	-68.11	582.79	39.55000000000003	0.0899674731188291	1.8045074963567597e-17	-0.29469843837637927	0.0	-0.08310905728817881	-5.088962049405926e-18	0.0	0.19654753465310573	1.2035065459661324e-17
1.4565	-1.02	25.14	-2.8199999999999985	-0.2611751219725531	6.93539110385565e-18	-0.11326353212507906	-67.75	582.79	39.55000000000003	0.09005740937650197	1.804326820303471e-17	-0.2946689317376627	0.0	-0.08337721133589814	-5.105381749216819e-18	0.0	0.19606731874049882	1.2005660715647646e-17
1.457	-1.02	25.14	-2.8299999999999987	-0.259111026753237	6.8815636716826366e-18	-0.11238446344649372	-67.38	584.18	39.56000000000004	0.09014723519743363	1.8041495869731787e-17	-0.29463998733827895	0.0	-0.08361756639790303	-5.1200992520839766e-18	0.0	0.1955561319367852	1.1974359551500942e-17
1.4575	-1.38	23.74	-2.469999999999999	-0.25703066789381657	6.827272864698457e-18	-0.11149782728295696	-67.74	585.58	39.930000000000035	0.09023696332301678	1.8039758042374206e-17	-0.2946116064637477	0.0	-0.08383035883410929	-5.133129030878113e-18	0.0	0.19501395597037563	1.1941160848409043e-17
1.458	-1.74	22.33	-2.8299999999999987	-0.25493426109117556	6.7725249708151595e-18	-0.11060372632386549	-67.74	586.98	39.580000000000034	0.09032660630798096	1.803805479525891e-17	-0.29458379032743	0.0	-0.08401583728498614	-5.1444863104369705e-18	0.0	0.19444077137268279	1.1906063414264793e-17
1.4585	-1.38	22.33	-2.8299999999999987	-0.2528220344844256	6.717326631510649e-18	-0.10970226903278466	-67.39	586.98	39.59000000000004	0.09041617654086403	1.8036386198358198e-17	-0.2945565400720603	0.0	-0.0841742613505385	-5.1541869866763004e-18	0.0	0.19383655039142644	1.1869065549731135e-17
1.459	-1.38	20.94	-2.8299999999999987	-0.25069422921352036	6.661684841391283e-18	-0.10879356964030502	-66.66	588.37	39.23000000000003	0.0905056862546304	1.803475231827404e-17	-0.29452985678533145	0.0	-0.08430590139184856	-5.162247614437799e-18	0.0	0.19320125653138248	1.18301650201201e-17
1.4595	-1.02	19.54	-2.8299999999999987	-0.24855109987420512	6.6056069510100185e-18	-0.10787774819006633	-66.66	589.76	39.610000000000035	0.0905951475310647	1.8033153219096228e-17	-0.29450374151390907	0.0	-0.08441103897015906	-5.168685434375203e-18	0.0	0.19253484959478723	1.1789359364028556e-17
1.46	-1.39	19.54	-2.469999999999999	-0.2463929148734529	6.549100660042933e-18	-0.10695493042732156	-66.29	589.76	39.250000000000036	0.09068457231211707	1.803158896242021e-17	-0.29447819526372315	0.0	-0.08448996536730946	-5.1735182823571286e-18	0.0	0.19183728819207904	1.1746646047076796e-17
1.4605	-1.75	20.94	-2.4799999999999986	-0.2442199566236474	6.4921740119703514e-18	-0.1060252477120731	-67.01	592.56	39.63000000000004	0.09077397240928196	1.8030059607201086e-17	-0.29445321899758353	0.0	-0.08454297883424156	-5.176764420986634e-18	0.0	0.19110852537571246	1.1702022194556759e-17
1.461	-1.39	20.94	-3.199999999999999	-0.24203252126733216	6.434835407989795e-18	-0.10508883724628854	-66.65	592.56	38.91000000000003	0.09086335950785222	1.802856520961288e-17	-0.2944288136328817	0.0	-0.08457038496231212	-5.178442562337566e-18	0.0	0.19034850445150953	1.1655484334951261e-17
1.4615	-1.39	19.54	-2.8399999999999985	-0.23983091811130217	6.377093631882723e-18	-0.10414584248000533	-65.93	592.55	39.27000000000004	0.09095274517046624	1.8027105822376712e-17	-0.2944049800306188	0.0	-0.08457250195657476	-5.178572190849944e-18	0.0	0.18955716300887163	1.1607028646713312e-17
1.462	-1.39	18.14	-2.4799999999999986	-0.2376154696377026	6.318957865177683e-18	-0.10319641335896382	-65.93	595.34	38.94000000000003	0.09104214083757906	1.8025681493973436e-17	-0.2943817189825474	0.0	-0.08454966574579247	-5.177173876227984e-18	0.0	0.18873444293337133	1.1556651571360531e-17
1.4625	-1.75	18.14	-2.4799999999999986	-0.23538651228305943	6.260437689859412e-18	-0.10224070636885023	-65.56	595.34	38.94000000000003	0.09113155783408888	1.802429226841235e-17	-0.2943590312073937	0.0	-0.08450222904405853	-5.1742692159809546e-18	0.0	0.18788029727523445	1.1504350234048388e-17
1.463	-1.75	16.74	-2.479999999999999	-0.23314439732282508	6.201543088890496e-18	-0.10127888454381598	-65.56	596.73	38.95000000000004	0.09122100738259072	1.8022938185464175e-17	-0.294336917354663	0.0	-0.08443055537206808	-5.16988046933164e-18	0.0	0.1869946890683933	1.145012237125806e-17
1.4635	-2.48	18.13	-2.479999999999999	-0.23088949144214357	6.142284453212773e-18	-0.10031111758081934	-65.56	596.73	38.95000000000004	0.09131050060479075	1.8021619281097387e-17	-0.29431537801176494	0.0	-0.08433501426192	-5.164030263595149e-18	0.0	0.1860775851711636	1.1393965953646667e-17
1.464	-2.11	16.74	-2.849999999999999	-0.22862217690559458	6.082672593854983e-18	-0.09933758203735829	-65.2	598.13	38.610000000000035	0.09140004850823928	1.8020335587992217e-17	-0.29429441371240833	0.0	-0.08421598077358243	-5.156741564570949e-18	0.0	0.18512895172753716	1.1335878908131605e-17
1.4645	-2.11	16.73	-2.839999999999999	-0.22634285156220763	6.022718751259686e-18	-0.09835846148379071	-65.2	599.53	38.62000000000003	0.09148966197282131	1.8019087135620213e-17	-0.29427402493790006	0.0	-0.08407383687413861	-5.148037760997337e-18	0.0	0.18414875672439335	1.1275859274474592e-17
1.465	-2.48	15.33	-2.479999999999999	-0.2240519292894442	5.962434597184659e-18	-0.09737394653438658	-64.84	599.52	38.62000000000003	0.09157935174292188	1.8017873949671864e-17	-0.29425421210779773	0.0	-0.08390897215209836	-5.1379427082903884e-18	0.0	0.18313697579521127	1.1213905560656535e-17
1.4655	-2.48	16.73	-2.4899999999999993	-0.22174984084926766	5.901832234637381e-18	-0.09638423484625787	-64.47	602.31	38.640000000000036	0.09166912842163487	1.8016696051576416e-17	-0.2942349755720674	0.0	-0.08372178308180185	-5.126480683501685e-18	0.0	0.18209359128894945	1.1150016685862863e-17
1.466	-2.48	15.33	-2.4899999999999993	-0.21943703436169665	5.84092420766475e-18	-0.09538953127923697	-64.11	602.3	38.28000000000004	0.09175900247656185	1.8015553458461764e-17	-0.29421631561042877	0.0	-0.08351267214415431	-5.1136763314788425e-18	0.0	0.18101858603064439	1.1084191598430372e-17
1.4665	-2.84	15.32	-2.129999999999999	-0.2171139752625866	5.77972351496149e-18	-0.0943900481181187	-64.11	602.31	38.290000000000035	0.0918489842529389	1.801444618336599e-17	-0.29419823243580984	0.0	-0.08328204960023737	-5.099554773467885e-18	0.0	0.17991194179752068	1.1016429182535883e-17
1.467	-3.2	15.32	-2.4899999999999993	-0.21478114638357554	5.718243613693897e-18	-0.09338600513510685	-64.47	603.71	38.30000000000003	0.0919390839658397	1.8013374236004932e-17	-0.29418072620688235	0.0	-0.08303033669794434	-5.0841418034630216e-18	0.0	0.17877364320787037	1.0946728496321427e-17
1.4675	-2.84	15.33	-2.4899999999999993	-0.2124390483253719	5.6564984247375866e-18	-0.09237762967535311	-64.1	605.1	37.95000000000004	0.0920293116832113	1.8012337623849366e-17	-0.2941637970456534	0.0	-0.08275796689727874	-5.067463963234546e-18	0.0	0.1776036788665717	1.0875088842037034e-17
1.468	-3.56	15.31	-2.4899999999999993	-0.21008819984710983	5.5945023528665105e-18	-0.09136515698666871	-63.74	606.49	37.960000000000036	0.09211967733083234	1.8011336352550268e-17	-0.2941474450444104	0.0	-0.08246538542201477	-5.049548514875955e-18	0.0	0.17640203627473955	1.0801509454346724e-17
1.4685	-3.2	13.92	-2.4899999999999993	-0.20772913825056094	5.5322703026218985e-18	-0.0903488304786839	-63.38	607.88	37.610000000000035	0.09221019071374735	1.8010370425620327e-17	-0.29413167026052006	0.0	-0.08215304812562693	-5.03042337136217e-18	0.0	0.1751686969308662	1.0725989200359882e-17
1.469	-3.56	12.52	-2.849999999999999	-0.20536241995175755	5.469817666004289e-18	-0.08932890152184361	-63.38	607.88	37.610000000000035	0.09230086153642113	1.8009439843893565e-17	-0.2941164727076027	0.0	-0.08182141803971717	-5.0101168852016525e-18	0.0	0.17390363857635513	1.064852671713056e-17
1.4695	-3.93	11.11	-2.1399999999999992	-0.2029886212502188	5.407160295003869e-18	-0.08830562899879381	-63.02	609.28	37.63000000000004	0.0923916994041726	1.8008544604941816e-17	-0.2941018523460036	0.0	-0.08147095933753261	-4.98865747880847e-18	0.0	0.1726068425797768	1.0569120863812726e-17
1.47	-3.93	12.52	-2.499999999999999	-0.20060833880046466	5.344314490591887e-18	-0.08727927912459764	-63.37	609.28	37.63000000000004	0.09248271379831158	1.8007684702428816e-17	-0.2940878090722436	0.0	-0.08110213367955046	-4.966073420733906e-18	0.0	0.17127829944271408	1.0487771058796077e-17
1.4705	-3.92	12.51	-2.4899999999999993	-0.19822218946047593	5.281297021028785e-18	-0.08625012574572992	-63.01	610.67	37.28000000000004	0.09257391404667754	1.8006860125435608e-17	-0.29407434270800237	0.0	-0.08071540202584897	-4.942392936642179e-18	0.0	0.16991800714767835	1.0404477178545063e-17
1.471	-4.29	12.51	-2.4899999999999993	-0.1958308102521566	5.218125154121591e-18	-0.08521845086688033	-62.64	612.06	37.290000000000035	0.09266530931175333	1.8006070857936137e-17	-0.2940614529915549	0.0	-0.08031122635657807	-4.9176443146588865e-18	0.0	0.16852596428874847	1.0319239136971846e-17
1.4715	-4.29	12.51	-2.129999999999999	-0.19343485888169723	5.1548166802498906e-18	-0.08418454502699607	-62.64	613.46	36.95000000000004	0.09275690859556329	1.800531687866944e-17	-0.2940491395756832	0.0	-0.07989006921099473	-4.891855877145053e-18	0.0	0.16710216676335518	1.0232056682866508e-17
1.472	-4.29	12.51	-2.499999999999999	-0.19103501404059392	5.091389921954454e-18	-0.08314870745587599	-62.28	613.46	36.95000000000004	0.09284872074801888	1.800459816136492e-17	-0.2940374020313558	0.0	-0.07945239692795567	-4.865056179120089e-18	0.0	0.16564661155607113	1.014292963158738e-17
1.4725	-3.93	12.52	-2.499999999999999	-0.1886319750577295	5.0278637404410015e-18	-0.08211124618038523	-62.64	614.86	36.960000000000036	0.09294075446726861	1.800391467504049e-17	-0.2940262398525969	0.0	-0.07899868597546196	-4.837274395834614e-18	0.0	0.16415930206177562	1.0051858191010859e-17
1.473	-3.57	9.73	-2.1399999999999997	-0.18622646146672117	4.96425754433604e-18	-0.08107247816744882	-62.28	616.25	36.610000000000035	0.09303301829875847	1.800326638425276e-17	-0.2940156524605719	0.0	-0.07852942530124296	-4.808540466702215e-18	0.0	0.16264024879489491	9.95884300495987e-18
1.4735	-3.22	9.73	-1.7799999999999994	-0.18381921311815422	4.900591297397032e-18	-0.0800327294499682	-61.91	616.24	36.610000000000035	0.09312552064247114	1.800265324934761e-17	-0.29400563920768	0.0	-0.07804511324462876	-4.778884906206165e-18	0.0	0.161089464700819	9.863884866110931e-18
1.474	-2.86	8.33	-1.7799999999999996	-0.18141099082785161	4.836885526135985e-18	-0.07899233525132408	-61.55	616.24	36.250000000000036	0.09321826975256067	1.800207522672569e-17	-0.2939961993818898	0.0	-0.07754625471378937	-4.748338631055178e-18	0.0	0.15950695967180253	9.76698438018995e-18
1.4745	-2.14	6.95	-1.4199999999999995	-0.1790025771906793	4.773161333268195e-18	-0.07795164020501101	-61.19	617.63	36.27000000000004	0.09331127371620374	1.800153226908891e-17	-0.2939873322107649	0.0	-0.0770333632527609	-4.7169330867522555e-18	0.0	0.15789274014461868	9.668141941335604e-18
1.475	0.0	0.0	0.0	0.0	0.0	0.0	-61.55	619.03	36.28000000000004	0.09340454043249836	1.800102432567291e-17	-0.29397903686526033	0.0	0.0	0.0	0.0	0.15624681473723012	9.567358077245914e-18
1.4755	0.0	0.0	0.0	0.0	0.0	0.0	-61.18	620.42	35.930000000000035	0.09349807761563525	1.8000551342378406e-17	-0.29397131246186775	0.0	0.0	0.0	0.0	0.15456919926543833	9.464633756359413e-18
1.476	0.0	0.0	0.0	0.0	0.0	0.0	-60.46	621.81	35.94000000000003	0.09359189281452812	1.8000113261482607e-17	-0.2939641580579025	0.0	0.0	0.0	0.0	0.15285991594734263	9.359970339142312e-18
